<svg xmlns="http://www.w3.org/2000/svg" aria-hidden="true" style="width:0;height:0;position:absolute;overflow:hidden"><defs><symbol id="icon-arrow" viewBox="0 0 43 32"><path stroke-linecap="round" stroke-linejoin="round" stroke-width="5.333" d="M3.555 16h35.556m0 0L25.778 2.667M39.111 16 25.778 29.333"/></symbol><symbol id="icon-Bookshelf" viewBox="0 0 178 32"><path d="M22.176 8.533c0-4.731-3.497-7.406-9.545-7.406H0v29.417h13.33c6.089 0 9.998-2.921 9.998-8.599 0-4.402-2.633-6.665-5.719-7.2v-.082c2.427-.823 4.567-2.51 4.567-6.13zm-17.28 4.772V5.282h7.858c2.921 0 4.526 1.44 4.526 4.032s-1.317 3.991-4.814 3.991h-7.57zm0 3.662h8.599c3.086 0 4.937 1.687 4.937 4.69 0 2.757-1.275 4.731-5.472 4.731H4.896v-9.422zM35.89 31.161c-6.583 0-10.574-4.567-10.574-11.109S29.307 8.943 35.89 8.943s10.574 4.567 10.574 11.109-3.991 11.109-10.574 11.109zm0-3.538c4.114 0 6.254-3.25 6.254-7.57 0-4.361-2.139-7.57-6.254-7.57s-6.254 3.209-6.254 7.57c0 4.32 2.139 7.57 6.254 7.57zm23.022 3.538c-6.583 0-10.574-4.567-10.574-11.109S52.329 8.943 58.912 8.943s10.574 4.567 10.574 11.109-3.991 11.109-10.574 11.109zm0-3.538c4.114 0 6.254-3.25 6.254-7.57 0-4.361-2.139-7.57-6.254-7.57s-6.254 3.209-6.254 7.57c0 4.32 2.139 7.57 6.254 7.57zm13.56-26.496v29.417h4.32v-7.611l2.921-2.757 6.624 10.368h5.184l-8.846-13.207 7.982-7.817H85.35l-8.558 8.434V1.127h-4.32zm29.463 16.704c-3.045-.699-5.39-.864-5.39-3.003 0-1.481 1.399-2.469 3.991-2.469 3.374 0 4.197 1.687 4.485 3.333h4.197c-.288-3.662-3.003-6.747-8.722-6.747-5.266 0-8.311 2.757-8.311 6.213 0 4.773 4.526 5.431 7.858 6.213 3.086.741 5.595.946 5.595 3.579 0 1.317-1.275 2.798-4.279 2.798-4.443 0-5.431-1.934-5.637-4.197h-4.197c.206 4.443 3.127 7.611 9.915 7.611 5.102 0 8.558-2.51 8.558-6.542 0-5.019-4.197-5.883-8.064-6.789zm22.188-8.887c-3.538 0-5.719 1.646-6.83 3.291h-.082V1.126h-4.32v29.417h4.32V17.748c0-3.127 2.263-5.143 5.431-5.143 3.003 0 4.197 1.81 4.197 4.649v13.289h4.361V16.02c0-4.814-3.086-7.077-7.077-7.077zm20.325 18.679c-3.826 0-6.089-2.921-6.089-6.459h16.128c0-7.488-3.333-12.219-10.121-12.219-6.336 0-10.327 4.279-10.327 11.109 0 6.583 3.991 11.109 10.533 11.109 5.39 0 8.517-3.045 9.586-7.035h-4.32c-.37 1.275-1.81 3.497-5.39 3.497zm-.082-15.264c3.497 0 5.801 2.345 5.801 5.595h-11.808c0-3.25 2.51-5.595 6.007-5.595zm13.165-11.232v29.417h4.361V1.127h-4.361zm18.472 3.538V1.127a15.12 15.12 0 0 0-2.88-.288c-3.456 0-5.349 1.563-5.349 6.007V9.52h-3.003v3.538h3.003v17.486h4.361V13.058h3.867V9.52h-3.867V7.216c0-2.386 1.07-2.674 3.867-2.551z"/></symbol><symbol id="icon-uil_cart" viewBox="0 0 32 32"><path d="M25.333 9.333h-4V8a5.332 5.332 0 1 0-10.666 0v1.333h-4a1.335 1.335 0 0 0-1.334 1.334v14.667a4.003 4.003 0 0 0 4 4h13.333a4.003 4.003 0 0 0 4-4V10.667a1.335 1.335 0 0 0-1.334-1.334zM13.333 8a2.668 2.668 0 0 1 5.334 0v1.333h-5.333V8zM24 25.333a1.335 1.335 0 0 1-1.334 1.334H9.333a1.335 1.335 0 0 1-1.334-1.334V12h2.667v1.333a1.335 1.335 0 0 0 2.277.943c.25-.251.391-.589.391-.943V12h5.333v1.333a1.333 1.333 0 1 0 2.667 0V12h2.667v13.333z"/></symbol><symbol id="icon-logo" viewBox="0 0 32 32"><path fill="#f6f6f6" d="m0 0 16.343 16.171L32 32V0H0z" style="fill:var(--color1,#f6f6f6)"/><path fill="#f6f6f6" d="M4.457 4.229 16.4 16.058l11.257 11.486h-23.2V4.23z" style="fill:var(--color1,#f6f6f6)"/><path fill="#4f2ee8" d="M27.733 27.618 15.79 15.789 4.533 4.303h23.2v23.314z" style="fill:var(--color2,#4f2ee8)"/><path fill="#4f2ee8" d="m9.257 9.029 13.6 13.6h-13.6v-13.6z" style="fill:var(--color2,#4f2ee8)"/><path fill="#f6f6f6" d="m9.257 9.029 13.6 13.6v-13.6h-13.6z" style="fill:var(--color1,#f6f6f6)"/></symbol><symbol id="icon-user-fill" viewBox="0 0 32 32"><path fill="#4f2ee8" d="M5.333 29.333a10.666 10.666 0 0 1 21.332 0H5.332zm10.667-12c-4.42 0-8-3.58-8-8s3.58-8 8-8 8 3.58 8 8-3.58 8-8 8z" style="fill:var(--color2,#4f2ee8)"/></symbol><symbol id="icon-arr-down" viewBox="0 0 60 32"><path fill="#fff" d="M3.167 3h53.667L32.711 30.27c-.719.812-1.694 1.269-2.71 1.269s-1.991-.456-2.71-1.269L3.168 3z" style="fill:var(--color3,#fff)"/></symbol><symbol id="icon-burger-meny" viewBox="0 0 32 32"><path stroke-linecap="round" stroke-linejoin="round" stroke-width="2.286" d="M22.667 13.333H4M28 8H4m24 10.667H4M22.667 24H4"/></symbol><symbol id="close-btn-icon" viewBox="0 0 32 32"><path stroke-linecap="round" stroke-linejoin="round" stroke-width="5.333" d="M28.444 3.556 3.555 28.445m.001-24.889 24.889 24.889"/></symbol><symbol id="icon-angle" viewBox="0 0 32 32"><path fill="#4f2ee8" style="fill:var(--color1,#4f2ee8)" d="M15.053 17.867a1.334 1.334 0 0 0 1.894 0l6.107-6.12a1.334 1.334 0 1 1 1.894 1.88l-6.12 6.12a4.001 4.001 0 0 1-5.654 0l-6.12-6.12a1.337 1.337 0 0 1 .434-2.172 1.331 1.331 0 0 1 1.46.292l6.107 6.12z"/></symbol><symbol id="icon-settings-3" viewBox="0 0 42 32"><path d="M3.692 21.72c.176.042.415.259.484.457l.35.844c.079.162.064.483-.03.637l-1.397 2.284c-.299.49-.237 1.184.165 1.634l1.183 1.182c.412.366 1.139.432 1.613.145l2.284-1.397c.143-.088.45-.119.665-.018l.843.348c.17.059.387.297.429.473l.627 2.604c.133.552.66 1.006 1.226 1.058 0 0 .347.032.867.032s.867-.032.868-.032a1.444 1.444 0 0 0 1.225-1.058l.628-2.604c.042-.175.258-.414.456-.483l.844-.35c.149-.073.494-.058.637.03l2.284 1.397c.201.123.441.188.696.188.345 0 .679-.121.938-.352l1.182-1.183a1.407 1.407 0 0 0 .145-1.613l-1.397-2.284c-.094-.154-.109-.475-.018-.665l.348-.843c.059-.17.297-.387.473-.429l2.604-.627a1.446 1.446 0 0 0 1.058-1.226s.032-.347.032-.867-.032-.867-.032-.868a1.447 1.447 0 0 0-1.058-1.226l-2.603-.626c-.176-.042-.415-.259-.484-.457l-.35-.844c-.079-.162-.064-.483.03-.637l1.397-2.284c.299-.49.237-1.184-.165-1.634l-1.183-1.182c-.413-.367-1.141-.433-1.613-.145l-2.284 1.397c-.143.087-.451.12-.665.018l-.843-.348c-.17-.059-.386-.297-.428-.473l-.628-2.604a1.446 1.446 0 0 0-1.226-1.058C13.867 6.032 13.52 6 13 6s-.867.032-.868.032a1.447 1.447 0 0 0-1.226 1.058l-.626 2.602c-.042.176-.259.415-.457.484l-.844.35c-.15.073-.494.057-.637-.03L6.059 9.099c-.473-.288-1.185-.238-1.634.164l-1.182 1.183a1.407 1.407 0 0 0-.145 1.613l1.397 2.284c.094.154.109.475.018.665l-.348.843c-.059.17-.297.387-.473.429l-2.604.627A1.446 1.446 0 0 0 .03 18.133c.002 0-.03.347-.03.867s.032.867.032.868a1.447 1.447 0 0 0 1.058 1.226l2.602.626zM1 19c0-.458.027-.767.028-.777a.466.466 0 0 1 .296-.344l2.604-.627c.505-.122 1.014-.584 1.172-1.047l.324-.787c.228-.467.196-1.153-.075-1.597l-1.397-2.283c-.067-.111-.048-.331.018-.406L5.111 9.99c.091-.081.323-.101.427-.038l2.284 1.397c.433.265 1.175.283 1.568.088l.788-.326c.491-.169.953-.678 1.075-1.184l.626-2.603a.465.465 0 0 1 .344-.297c.01 0 .319-.027.777-.027s.767.027.777.028a.466.466 0 0 1 .344.296l.627 2.603c.122.505.583 1.015 1.047 1.173l.787.324c.457.224 1.165.189 1.597-.075l2.283-1.397c.104-.063.35-.03.406.018l1.142 1.141c.086.097.105.316.038.427l-1.397 2.284c-.271.443-.303 1.13-.088 1.568l.326.788c.169.491.678.953 1.184 1.075l2.603.626a.465.465 0 0 1 .297.344c0 .01.027.319.027.777s-.027.767-.028.777a.466.466 0 0 1-.296.344l-2.604.627c-.505.122-1.014.584-1.172 1.047l-.324.787c-.228.467-.196 1.153.075 1.597l1.397 2.283c.067.111.048.331-.018.406l-1.141 1.142a.398.398 0 0 1-.251.079.346.346 0 0 1-.175-.041l-2.284-1.397c-.432-.264-1.174-.283-1.568-.088l-.788.326c-.491.169-.953.679-1.074 1.184l-.627 2.603a.465.465 0 0 1-.344.297c-.011 0-.32.027-.778.027s-.767-.027-.777-.028a.466.466 0 0 1-.344-.296l-.627-2.604c-.122-.505-.584-1.014-1.047-1.172l-.787-.324a1.633 1.633 0 0 0-.715-.152c-.329 0-.642.081-.882.228l-2.283 1.397c-.104.063-.351.029-.406-.018L3.99 26.889c-.086-.097-.105-.316-.038-.427l1.397-2.284c.271-.443.303-1.13.088-1.568l-.326-.788c-.169-.491-.678-.953-1.184-1.075l-2.603-.626a.465.465 0 0 1-.297-.344c0-.01-.027-.319-.027-.777zm12 5.5c3.033 0 5.5-2.467 5.5-5.5s-2.467-5.5-5.5-5.5-5.5 2.467-5.5 5.5 2.467 5.5 5.5 5.5zm0-10c2.481 0 4.5 2.019 4.5 4.5s-2.019 4.5-4.5 4.5-4.5-2.019-4.5-4.5 2.019-4.5 4.5-4.5zm14.477-9.186a.424.424 0 0 1-.259.138l-1.861-.018a1.16 1.16 0 0 0-1.053.746s-.082.233-.172.59-.128.601-.128.601c-.07.451.181.95.584 1.161l1.641.86a.435.435 0 0 1 .166.273l.093.635a.426.426 0 0 1-.084.28l-1.322 1.296c-.331.324-.418.878-.19 1.313l.599 1c.253.372.801.562 1.231.428l1.824-.558c.099 0 .198.038.254.083l.515.38a.43.43 0 0 1 .138.259l-.018 1.852c-.004.456.316.913.746 1.063 0 0 .233.082.59.172s.601.128.601.128c.026.004.13.012.156.012a1.17 1.17 0 0 0 1.005-.596l.86-1.641a.435.435 0 0 1 .273-.166l.663-.096c.1 0 .218.052.251.086l1.296 1.322c.315.322.846.437 1.313.19l.999-.599c.382-.26.567-.79.429-1.231l-.552-1.767a.433.433 0 0 1 .078-.311l.38-.515a.424.424 0 0 1 .259-.138l1.861.018a1.16 1.16 0 0 0 1.053-.746s.082-.233.172-.59.128-.601.128-.601a1.16 1.16 0 0 0-.584-1.161l-1.641-.86a.435.435 0 0 1-.166-.273l-.092-.633a.426.426 0 0 1 .084-.28l1.322-1.296c.331-.324.418-.878.19-1.313l-.599-1c-.253-.371-.8-.563-1.231-.429l-1.825.558a.432.432 0 0 1-.254-.083l-.515-.38a.43.43 0 0 1-.138-.259l.018-1.852a1.158 1.158 0 0 0-.746-1.063s-.233-.082-.59-.172-.601-.128-.601-.128a2.725 2.725 0 0 0-.156-.011 1.17 1.17 0 0 0-1.005.596l-.86 1.641a.435.435 0 0 1-.273.166l-.663.095a.437.437 0 0 1-.251-.086l-1.296-1.322a1.112 1.112 0 0 0-1.313-.19l-1 .598c-.382.26-.567.79-.429 1.231l.552 1.767a.433.433 0 0 1-.078.311l-.379.515zm.82.572.343-.466c.268-.317.372-.834.248-1.229l-.551-1.766c-.005-.028.017-.091.012-.092l.948-.568.113.017 1.297 1.322c.23.234.609.386.965.386a.945.945 0 0 0 .204-.019l.575-.085a1.393 1.393 0 0 0 1.043-.694l.859-1.64a.185.185 0 0 1 .12-.061c.011.001.215.035.513.109s.493.142.502.146c.031.013.076.078.078.11l-.018 1.852c-.004.414.245.879.567 1.089l.465.343c.309.261.839.371 1.229.248l1.774-.552c.042 0 .089.026.083.013l.568.948c.011.026 0 .092-.017.113l-1.322 1.297c-.295.291-.448.795-.367 1.169l.084.575c.036.412.328.851.695 1.043l1.64.859a.189.189 0 0 1 .061.12c-.001.011-.035.215-.109.513s-.142.493-.146.502c-.013.031-.078.076-.11.078l-1.862-.018c-.411 0-.871.249-1.079.567l-.342.465a1.386 1.386 0 0 0-.248 1.229l.551 1.766c.005.027-.017.091-.012.092l-.948.568-.113-.017-1.297-1.322c-.23-.234-.609-.386-.965-.386a.945.945 0 0 0-.204.019l-.575.085a1.393 1.393 0 0 0-1.043.694l-.859 1.64a.185.185 0 0 1-.12.061 6.405 6.405 0 0 1-.513-.109 6.095 6.095 0 0 1-.502-.146c-.031-.013-.076-.078-.078-.11l.018-1.852c.004-.414-.245-.879-.567-1.089l-.465-.343a1.387 1.387 0 0 0-1.23-.248l-1.774.552c-.043 0-.09-.023-.083-.013l-.568-.948c-.011-.026 0-.092.017-.113l1.322-1.297c.295-.291.448-.795.367-1.169l-.084-.574a1.392 1.392 0 0 0-.695-1.043l-1.64-.859a.189.189 0 0 1-.061-.12c.001-.011.035-.215.109-.513.075-.297.142-.493.146-.502.013-.031.078-.076.11-.078l1.862.018c.411 0 .871-.249 1.079-.567zM33 12c1.654 0 3-1.346 3-3s-1.346-3-3-3-3 1.346-3 3 1.346 3 3 3zm0-5c1.103 0 2 .897 2 2s-.897 2-2 2-2-.897-2-2 .897-2 2-2z"/></symbol><symbol id="icon-settings-4" viewBox="0 0 32 32"><path d="m30.391 12.68-3.064-.614a12.098 12.098 0 0 0-.537-1.289l1.736-2.604a1.999 1.999 0 0 0-.25-2.523l-1.924-1.924a1.996 1.996 0 0 0-2.523-.25l-2.604 1.735a12.09 12.09 0 0 0-1.291-.536L19.32 1.61A1.998 1.998 0 0 0 17.359.002h-2.72a2 2 0 0 0-1.961 1.608l-.614 3.065c-.443.154-.873.335-1.289.536L8.172 3.476a1.996 1.996 0 0 0-2.524.25L3.725 5.65a2 2 0 0 0-.25 2.523l1.735 2.604c-.202.417-.382.847-.536 1.29l-3.066.613A2 2 0 0 0 0 14.641v2.72a2 2 0 0 0 1.608 1.961l3.065.615c.154.443.335.873.536 1.289L3.475 23.83a1.999 1.999 0 0 0 .25 2.523l1.924 1.924a1.996 1.996 0 0 0 2.523.25l2.604-1.736c.417.203.847.383 1.29.537l.613 3.064a2 2 0 0 0 1.961 1.609h2.72a2 2 0 0 0 1.961-1.609l.615-3.064c.443-.154.873-.336 1.289-.537l2.604 1.736a1.998 1.998 0 0 0 2.523-.25l1.924-1.924a2 2 0 0 0 .25-2.523l-1.736-2.604c.203-.418.383-.848.537-1.291l3.064-.613A2 2 0 0 0 32 17.361v-2.72c0-.953-.674-1.774-1.609-1.961zm-3.457 5.295a1.997 1.997 0 0 0-1.496 1.305c-.129.369-.279.727-.447 1.074a1.996 1.996 0 0 0 .135 1.982l1.736 2.604-1.924 1.924-2.604-1.736a1.997 1.997 0 0 0-1.98-.137c-.348.168-.705.32-1.076.449a1.998 1.998 0 0 0-1.303 1.496l-.615 3.066h-2.72l-.613-3.066a1.997 1.997 0 0 0-1.304-1.496 10.17 10.17 0 0 1-1.075-.447 1.994 1.994 0 0 0-1.981.135l-2.604 1.736-1.924-1.924 1.735-2.604c.393-.59.444-1.344.137-1.98a10.106 10.106 0 0 1-.448-1.076 2 2 0 0 0-1.496-1.303l-3.065-.615L2 14.641l3.066-.613a1.999 1.999 0 0 0 1.496-1.304c.129-.369.278-.728.447-1.075a1.995 1.995 0 0 0-.136-1.981L5.139 7.064 7.062 5.14l2.604 1.735a1.997 1.997 0 0 0 1.98.137 10.09 10.09 0 0 1 1.075-.448 1.999 1.999 0 0 0 1.304-1.496l.614-3.065 2.72-.001.613 3.066a1.998 1.998 0 0 0 1.305 1.496c.369.129.727.278 1.074.447a1.998 1.998 0 0 0 1.982-.136l2.604-1.735 1.924 1.924-1.736 2.604a2.006 2.006 0 0 0-.137 1.98c.168.347.32.705.449 1.075a1.997 1.997 0 0 0 1.496 1.304l3.064.614.003 2.72-3.066.614zM16 9.001A7 7 0 1 0 16.001 23 7 7 0 0 0 16 9zm0 13.126c-3.382 0-6.125-2.744-6.125-6.125S12.618 9.877 16 9.877a6.127 6.127 0 0 1 6.125 6.125A6.127 6.127 0 0 1 16 22.127zm0-10.126c-2.21 0-4 1.79-4 4s1.79 4 4 4a4 4 0 0 0 0-8zm0 7.001a3.001 3.001 0 0 1 0-6 3.001 3.001 0 0 1 0 6z"/></symbol><symbol id="icon-settings-1" viewBox="0 0 32 32"><path d="M29.181 19.07c-1.679-2.908-.669-6.634 2.255-8.328l-3.145-5.447a6.022 6.022 0 0 1-3.058.829c-3.361 0-6.085-2.742-6.085-6.125h-6.289a6.023 6.023 0 0 1-.811 3.07C10.369 5.977 6.637 6.966 3.709 5.28L.565 10.727a6.023 6.023 0 0 1 2.246 2.234c1.676 2.903.672 6.623-2.241 8.319l3.145 5.447a6.022 6.022 0 0 1 3.044-.82c3.35 0 6.067 2.725 6.084 6.092h6.289a6.032 6.032 0 0 1 .811-3.038c1.676-2.903 5.399-3.894 8.325-2.219l3.145-5.447a6.032 6.032 0 0 1-2.232-2.226zM16 22.479A6.48 6.48 0 1 1 16 9.52a6.48 6.48 0 0 1 0 12.959z"/></symbol><symbol id="icon-settings-2" viewBox="0 0 32 32"><path d="m11.366 22.564 1.291-1.807-1.414-1.414-1.807 1.291a4.996 4.996 0 0 0-1.071-.444L8 18H6l-.365 2.19a4.946 4.946 0 0 0-1.071.444l-1.807-1.291-1.414 1.414 1.291 1.807a4.943 4.943 0 0 0-.443 1.071L.001 24v2l2.19.365c.107.377.256.736.444 1.071l-1.291 1.807 1.414 1.414 1.807-1.291c.335.187.694.337 1.071.444L6.001 32h2l.365-2.19a4.946 4.946 0 0 0 1.071-.444l1.807 1.291 1.414-1.414-1.291-1.807c.187-.335.337-.694.444-1.071l2.19-.365v-2l-2.19-.365a4.946 4.946 0 0 0-.444-1.071zM7 27a2 2 0 1 1-.001-3.999A2 2 0 0 1 7 27zm25-15v-2l-2.106-.383a8.715 8.715 0 0 0-.148-.743l1.799-1.159-.765-1.848-2.092.452a8.957 8.957 0 0 0-.422-.629l1.219-1.761-1.414-1.414-1.761 1.219a8.957 8.957 0 0 0-.629-.422l.452-2.092-1.848-.765-1.159 1.799a9.122 9.122 0 0 0-.743-.148L22 0h-2l-.383 2.106a8.715 8.715 0 0 0-.743.148L17.715.455l-1.848.765.452 2.092a8.957 8.957 0 0 0-.629.422l-1.761-1.219-1.414 1.414 1.219 1.761c-.149.203-.29.413-.422.629l-2.092-.452-.765 1.848 1.799 1.159a9.122 9.122 0 0 0-.148.743L10 10v2l2.106.383c.039.251.088.499.148.743l-1.799 1.159.765 1.848 2.092-.452c.132.216.273.426.422.629l-1.219 1.761 1.414 1.414 1.761-1.219c.203.149.413.29.629.422l-.452 2.092 1.848.765 1.159-1.799c.244.059.492.109.743.148L20 22h2l.383-2.106c.251-.039.499-.088.743-.148l1.159 1.799 1.848-.765-.452-2.092c.216-.132.426-.273.629-.422l1.761 1.219 1.414-1.414-1.219-1.761c.149-.203.29-.413.422-.629l2.092.452.765-1.848-1.799-1.159c.059-.244.109-.492.148-.743L32 12zm-11 3.35a4.35 4.35 0 1 1 .001-8.701A4.35 4.35 0 0 1 21 15.35z"/></symbol></defs></svg>